<svg width="1380" height="250" fill="none" xmlns="http://www.w3.org/2000/svg"><path fill-rule="evenodd" clip-rule="evenodd" d="M125 0C56.083 0 0 56.083 0 125s56.083 125 125 125 125-56.083 125-125S193.917 0 125 0zm107.583 116.083c-6.389-21.139-17.139-38.75-29.472-53.194 11.695-1.167 19.806-1.306 22.028-1.306a117.831 117.831 0 0116.5 42.111c-1.695 4.139-4.833 8.278-9.056 12.389zm-.639 53.056c-6.666-10-14.555-19.611-23.027-28.639 7.305-4.139 14.139-8.528 20.055-13.056 2.834 12.639 4 26.528 2.972 41.695zM21.056 127.444c5.888 4.556 12.75 8.917 20.027 13.056-8.472 9.028-16.389 18.639-23.027 28.639-1.028-15.139.138-29.028 3-41.695zM8.333 103.667a117.83 117.83 0 0116.5-42.111c2.223 0 10.361.138 22.028 1.305-12.305 14.444-23.083 32.083-29.472 53.222-4.195-4.111-7.333-8.25-9.056-12.416zm188.834 73.055c.055-.111.083-.194.139-.305a141.098 141.098 0 008.972-29.306c8.416 9.139 16.194 18.833 22.5 28.833-11.722.584-22.222.834-31.611.778zm-175.945-.778c6.306-9.972 14.056-19.666 22.5-28.805a141.054 141.054 0 008.972 29.305c.056.112.112.195.14.306-9.39.028-19.89-.222-31.612-.806zM128.194 39.889c8.139 1.083 30.112 5.139 55.278 19.167-16.472 2.694-36 7.222-55.278 14.944V39.889zM121.806 74c-20-8-40.223-12.611-57.028-15.25 27.972-15.444 51.833-18.611 57.028-19.139V74zm-5.473 4.722c-7.305 4.75-19.555 13.084-33.472 24-7.305-12.11-14.5-25.028-20.778-37.944 15.89 2.389 35.084 6.61 54.25 13.944zm5.473 4.084v78.027c-7.5-10.166-21.417-29.611-35.528-52.527 15.333-12.084 28.694-21.084 35.528-25.5zm-4.445 82.722c-13.305-3.778-41.305-13.806-65.833-26.556 9.75-9.778 20-18.778 29.722-26.666 14.556 23.555 28.778 43.333 36.111 53.222zm4.445 50.75c-5.362.028-17.362-.278-31.806-2.695 15.5-13.861 25.944-25.944 31.806-33.444v36.139zm6.388-36.139c5.862 7.5 16.306 19.583 31.806 33.444-14.444 2.417-26.444 2.723-31.806 2.695v-36.139zm0-19.306V82.806c6.834 4.416 20.195 13.416 35.528 25.5-14.111 22.916-28.028 42.361-35.528 52.527zm40.556-48.527c9.722 7.888 19.972 16.888 29.722 26.666-24.5 12.75-52.528 22.778-65.833 26.556 7.333-9.889 21.555-29.667 36.111-53.222zm-35.083-33.584c19.166-7.333 38.361-11.528 54.25-13.916-6.278 12.916-13.473 25.805-20.778 37.916-13.945-10.944-26.167-19.25-33.472-24zm-5.473-45.278V15.89c9.445 4.028 33.167 15.417 55.639 36.111-26-13.944-47.916-17.667-55.639-18.556zm-6.388-.25c-4.167.362-25.64 2.75-52.39 15.945 21.473-18.861 43.417-29.417 52.39-33.278v17.333zm-43.973 73.528C68.194 114.5 58 123.389 48.223 133.139c-1.945-20.806.721-42.722 8.083-65.667 6.5 13.39 13.972 26.75 21.527 39.25zm-19.277 67.195c-4-9.278-6.834-18.834-8.667-28.639 23.083 11.944 48.639 21.305 63.444 25.639-9.472 2.389-26.333 5.222-53.472 5.75-.444-.945-.917-1.806-1.305-2.75zm57.777 2.805c-6.194 7.806-17.277 20.528-33.694 34.834-7.111-8-14-17.5-19.75-28.584 27.194-.694 44-3.75 53.444-6.25zm4.028 45.972h1.445v19.612c-6.695-2.945-18.445-10.167-30.723-21.889 12.75 1.916 23.389 2.277 29.278 2.277zm7.833-.027h1.445c5.889 0 16.528-.334 29.278-2.306-12.278 11.722-24.028 18.945-30.723 21.889v-19.583zm5.473-45.945c9.444 2.5 26.25 5.556 53.444 6.25-5.778 11.084-12.667 20.584-19.75 28.584-16.417-14.306-27.5-27.028-33.694-34.834zm3.083-5.833c14.806-4.333 40.333-13.667 63.361-25.611a132.85 132.85 0 01-8.667 28.639c-.416.944-.861 1.805-1.277 2.722-27-.528-43.889-3.389-53.417-5.75zm65-37.778c-9.778-9.722-19.972-18.611-29.611-26.417 7.555-12.5 15.028-25.86 21.528-39.25 7.389 22.973 10.027 44.889 8.083 65.667zm-21.917-113.25a118.616 118.616 0 0121 14c-1.861 5.5-4.027 11.111-6.472 16.806-4-10.084-8.833-20.361-14.528-30.806zm5.028 24.528c-24.444-21.445-49.417-32.528-56.667-35.445v-2.5c14.723.39 28.806 3.473 41.723 8.778 5.75 9.89 10.722 19.611 14.944 29.167zM121.806 8.972c-7.223 2.917-32.223 14-56.667 35.445 4.222-9.556 9.194-19.278 14.916-29.167C93 9.944 107.056 6.861 121.806 6.472v2.5zM55.611 50.667a261.375 261.375 0 01-6.472-16.778c6.444-5.389 13.5-10.056 20.972-14-5.667 10.417-10.472 20.694-14.5 30.778zm-6.944 20.139c-6.39 21.86-8.667 42.861-6.806 62.888-7.111-4.111-13.639-8.416-19.111-12.861 5.472-19.666 14.889-36.222 25.917-50.027zm2.305 112.333c1.667 0 3.278 0 4.861-.028a146.204 146.204 0 0016.973 26.722c-17.528-4.777-36.14-13.083-49.973-27.416 10.278.5 19.667.722 28.14.722zm31.084 37.305c9.555 9.917 19.138 17.195 27 22.084-13.917-1.889-27.084-6.167-39.056-12.472a326.983 326.983 0 0012.056-9.612zm85.861 0A352.99 352.99 0 00180 230.056c-11.972 6.305-25.139 10.583-39.056 12.472 7.834-4.889 17.445-12.167 26.973-22.084zm26.25-37.333c1.583.028 3.194.028 4.861.028 8.472 0 17.861-.222 28.139-.722-13.861 14.333-32.445 22.639-49.973 27.416 6.167-7.722 12-16.611 16.973-26.722zm13.972-49.444c1.861-20.056-.417-41.084-6.833-62.973 11.027 13.806 20.472 30.389 25.944 50.112-5.444 4.444-12 8.75-19.111 12.861zm12.722-78.39c-4.694.167-12.472.584-22.278 1.667A267.088 267.088 0 00206 38.472a118.74 118.74 0 0114.861 16.806zM44 38.473c2.139 6.056 4.639 12.25 7.417 18.472-9.778-1.11-17.584-1.527-22.278-1.666A117.193 117.193 0 0144 38.472zm-37.083 75.25c2.333 3.111 5.277 6.167 8.666 9.167-2.722 11.055-4.305 22.972-4.277 35.889A118.108 118.108 0 016.389 125c0-3.806.194-7.556.528-11.278zM32 198.528c13.667 9.528 29.278 15.333 43.778 18.833a327.883 327.883 0 01-11.861 9.278C51.667 219.25 40.86 209.694 32 198.528zm154.083 28.111a328.229 328.229 0 01-11.861-9.278c14.5-3.528 30.111-9.333 43.778-18.861-8.861 11.194-19.667 20.75-31.917 28.139zm52.611-67.861c.028-12.917-1.527-24.834-4.277-35.889 3.389-3 6.305-6.083 8.666-9.167.361 3.722.556 7.472.556 11.278-.028 11.75-1.75 23.083-4.945 33.778zm71.151-103.025c0-6.37 1.808-8.308 8.346-8.308h32.966c27.263 0 49.797 14.954 49.797 39.737 0 13.154-7.094 24.784-17.943 31.984 15.996 7.338 26.846 22.291 26.846 39.875 0 26.722-24.621 43.06-54.249 43.06h-37.417c-6.399 0-8.346-1.8-8.346-8.307V55.753zm68.993 33.645c0-14.815-12.658-22.153-27.681-22.153h-19.056v44.167h19.056c15.023.139 27.681-7.061 27.681-22.014zm-46.737 92.904h23.507c17.388 0 32.132-8.584 32.132-25.476 0-16.753-14.605-25.476-32.132-25.476h-23.507v50.952zM452.421 55.91c0-6.369 1.808-8.307 8.346-8.307h34.218c27.263 0 49.797 16.06 49.797 43.198 0 18.415-10.989 33.229-26.707 39.598l24.62 60.506c.974 2.353 1.391 4.292 1.391 5.953 0 3.877-2.921 5.4-9.18 5.4-10.293 0-13.075-1.938-16.97-11.353l-22.951-57.044h-20.309v57.459c0 8.584-2.503 11.077-11.127 11.077-8.625 0-11.128-2.493-11.128-11.077V55.91zm22.116 11.63v46.522h20.309c15.022 0 27.68-7.2 27.68-23.261s-12.658-23.26-27.68-23.26h-20.309zm113.642-8.86c0-8.585 2.504-11.077 11.128-11.077s11.128 2.492 11.128 11.076V191.32c0 8.584-2.504 11.077-11.128 11.077s-11.128-2.493-11.128-11.077V58.68zm74.976 0c0-8.585 2.504-11.077 11.128-11.077s11.128 2.492 11.128 11.076v123.78h38.947c7.79 0 10.015 2.215 10.015 9.969 0 7.753-2.225 9.969-10.015 9.969H671.64c-6.398 0-8.346-1.8-8.346-8.308V58.679h-.139zm107.801 0c0-8.585 2.504-11.077 11.128-11.077s11.128 2.492 11.128 11.076v123.78h38.947c7.79 0 10.015 2.215 10.015 9.969 0 7.753-2.225 9.969-10.015 9.969h-52.718c-6.398 0-8.346-1.8-8.346-8.308V58.679h-.139zm107.663 0c0-8.585 2.503-11.077 11.128-11.077 8.624 0 11.127 2.492 11.127 11.076V191.32c0 8.584-2.503 11.077-11.127 11.077-8.625 0-11.128-2.493-11.128-11.077V58.68zm88.465 119.349l-6.12 13.153c-4.312 9.277-7.233 11.077-17.527 11.077-5.981 0-8.902-1.385-8.902-4.985 0-1.661.557-3.6 1.808-6.092L1002 50.649c1.11-2.492 2.36-3.738 3.48-3.738 1.11 0 2.22 1.246 3.33 3.877l59.82 140.671c.97 2.354 1.53 4.292 1.53 5.815 0 3.6-2.79 5.123-8.91 5.123-10.01 0-12.79-1.8-16.69-10.938l-5.7-13.292h-71.776v-.138zm9.32-19.799h53.966l-25.73-60.367-28.236 60.367zm269.016 40.29c0 3.185-.7 4.846-2.09 4.846-.97 0-2.36-.692-3.89-2.354l-111.7-106.334v96.642c0 8.585-2.5 11.077-11.13 11.077-8.62 0-11.12-2.492-11.12-11.077V51.48c0-3.185.69-4.846 2.08-4.846.98 0 2.23.692 3.9 2.353l111.69 106.196V58.679c0-8.584 2.51-11.076 11.13-11.076 8.63 0 11.13 2.492 11.13 11.076V198.52zm73.3-130.98h-28.93c-7.79 0-10.01-2.215-10.01-9.969 0-7.753 2.22-9.968 10.01-9.968h79.98c7.79 0 10.02 2.215 10.02 9.968 0 7.754-2.23 9.97-10.02 9.97h-28.93V191.32c0 8.584-2.5 11.077-11.13 11.077-8.62 0-11.13-2.493-11.13-11.077V67.54h.14z" fill="#333"/></svg>