<svg width="3840" height="1111" xmlns="http://www.w3.org/2000/svg"><g fill="none" fill-rule="evenodd"><path fill="#EAEEF0" d="M4010.098-13.95L70.867-708.543-91.494 212.252l3939.23 694.593z"/><path stroke="#D2DBDF" stroke-linecap="square" d="M2357.53 506.999l-203.276-36.351"/><path d="M3859.545 839.878l11.808-66.967-1513.65-266.897-.951 68.881 1502.793 264.983z" fill="#397A9D"/><path stroke="#D2DBDF" stroke-linecap="square" d="M2217.696 551.391l-203.681-36.93m-240.882-111.015l-349.81-61.935m286.821 327.024l-349.81-61.934m543.981 26.108l-349.81-61.935M2696.1 772.322l-349.81-61.935m132.429-389.674l-178.25-31.43"/><path d="M1292.943 250.234l1.19-68.839L-44.437-54.63l-11.808 66.967 1349.187 237.898zm2637.45 187.843l11.808-66.967-1421.077-250.575-1.19 68.84 1410.46 248.702z" fill="#295972"/><path d="M1424.917 342.554l1.217-68.834L-56.244 12.336l-11.808 66.967 1492.969 263.25z" fill="#95C7E4"/><path fill="#D2DBDF" d="M724.911 356.207l832.361 146.767-1.173 68.842L723.738 425.05z"/><path d="M1317.775 529.794l1.04-68.866-1410.31-248.676-11.807 66.967 1421.077 250.575z" fill="#B2C0C6"/><path d="M2501.01 669.888l341.936 60.293-1.178 67.826-341.937-60.293 1.178-67.826z" stroke="#D2DBDF"/><path d="M2218.364 551.001l431.03 76.003-.663 67.916-431.03-76.002.663-67.917z" stroke="#B5E3E5" fill="#B5E3E5"/><path d="M3894.969 638.977l11.808-66.967-1427.971-251.79-1.127 68.85 1417.29 249.907z" fill="#B5E3E5"/><path d="M3847.737 906.845l11.808-66.967L2443.39 590.172l-.859 68.898 1405.205 247.775z" fill="#95C7E4"/><path d="M1361.126 675.535l1.115-68.852L-115.11 346.186l-11.808 66.967 1488.045 262.382z" fill="#B5E3E5"/><path stroke="#D2DBDF" stroke-linecap="square" d="M3918.006 505.449L2610.18 274.844m-90.437-86.011l-427.407-75.363m-473.982 332.749L-80.439 146.676m1497.39-15.212L-32.686-124.146m1645.431 222.1L-21.052-190.128m4109.516 1347.075l-2042.47-360.27m-416.904-5.351L-136.67 479.975"/></g></svg>